<svg width="161" height="20" viewBox="0 0 161 20" fill="none" xmlns="http://www.w3.org/2000/svg">
<path d="M7.09235 7.26953H4.09235V19H2.93219V7.26953H0.565002V6.58984L2.93219 6.15625V5.17188C2.93219 3.60938 3.21735 2.46484 3.78766 1.73828C4.36578 1.00391 5.30719 0.636719 6.61188 0.636719C7.315 0.636719 8.01813 0.742188 8.72125 0.953125L8.45172 1.96094C7.82672 1.76562 7.20563 1.66797 6.58844 1.66797C5.68219 1.66797 5.03766 1.9375 4.65485 2.47656C4.27985 3.00781 4.09235 3.875 4.09235 5.07812V6.26172H7.09235V7.26953Z" fill="white"/>
<path d="M12.0011 6.26172V14.5117C12.0011 15.793 12.2706 16.7266 12.8097 17.3125C13.3488 17.8906 14.1847 18.1797 15.3175 18.1797C16.8331 18.1797 17.9464 17.7969 18.6573 17.0312C19.3761 16.2656 19.7355 15.0195 19.7355 13.293V6.26172H20.8839V19H19.8995L19.6886 17.2422H19.6183C18.7902 18.5703 17.3175 19.2344 15.2003 19.2344C12.3019 19.2344 10.8527 17.6836 10.8527 14.582V6.26172H12.0011Z" fill="white"/>
<path d="M34.488 15.6836C34.488 16.8242 34.0544 17.7031 33.1872 18.3203C32.32 18.9297 31.0895 19.2344 29.4958 19.2344C27.7927 19.2344 26.4411 18.9727 25.4411 18.4492V17.1953C26.7224 17.8359 28.0739 18.1562 29.4958 18.1562C30.7536 18.1562 31.7067 17.9492 32.3552 17.5352C33.0114 17.1133 33.3395 16.5547 33.3395 15.8594C33.3395 15.2188 33.0778 14.6797 32.5544 14.2422C32.0388 13.8047 31.1872 13.375 29.9997 12.9531C28.7263 12.4922 27.8317 12.0977 27.3161 11.7695C26.8005 11.4336 26.4099 11.0586 26.1442 10.6445C25.8864 10.2227 25.7575 9.71094 25.7575 9.10938C25.7575 8.15625 26.1559 7.40234 26.9528 6.84766C27.7575 6.29297 28.8786 6.01562 30.3161 6.01562C31.6911 6.01562 32.9958 6.27344 34.2302 6.78906L33.7966 7.84375C32.5466 7.32812 31.3864 7.07031 30.3161 7.07031C29.277 7.07031 28.4528 7.24219 27.8434 7.58594C27.2341 7.92969 26.9294 8.40625 26.9294 9.01562C26.9294 9.67969 27.1638 10.2109 27.6325 10.6094C28.1091 11.0078 29.0349 11.4531 30.4099 11.9453C31.5583 12.3594 32.3942 12.7344 32.9177 13.0703C33.4411 13.3984 33.8317 13.7734 34.0895 14.1953C34.3552 14.6172 34.488 15.1133 34.488 15.6836Z" fill="white"/>
<path d="M47.1077 15.6836C47.1077 16.8242 46.6741 17.7031 45.8069 18.3203C44.9397 18.9297 43.7092 19.2344 42.1155 19.2344C40.4124 19.2344 39.0608 18.9727 38.0608 18.4492V17.1953C39.342 17.8359 40.6936 18.1562 42.1155 18.1562C43.3733 18.1562 44.3264 17.9492 44.9749 17.5352C45.6311 17.1133 45.9592 16.5547 45.9592 15.8594C45.9592 15.2188 45.6975 14.6797 45.1741 14.2422C44.6584 13.8047 43.8069 13.375 42.6194 12.9531C41.3459 12.4922 40.4514 12.0977 39.9358 11.7695C39.4202 11.4336 39.0295 11.0586 38.7639 10.6445C38.5061 10.2227 38.3772 9.71094 38.3772 9.10938C38.3772 8.15625 38.7756 7.40234 39.5725 6.84766C40.3772 6.29297 41.4983 6.01562 42.9358 6.01562C44.3108 6.01562 45.6155 6.27344 46.8499 6.78906L46.4163 7.84375C45.1663 7.32812 44.0061 7.07031 42.9358 7.07031C41.8967 7.07031 41.0725 7.24219 40.4631 7.58594C39.8538 7.92969 39.5491 8.40625 39.5491 9.01562C39.5491 9.67969 39.7834 10.2109 40.2522 10.6094C40.7288 11.0078 41.6545 11.4531 43.0295 11.9453C44.178 12.3594 45.0139 12.7344 45.5374 13.0703C46.0608 13.3984 46.4514 13.7734 46.7092 14.1953C46.9749 14.6172 47.1077 15.1133 47.1077 15.6836Z" fill="white"/>
<path d="M57.2078 6.01562C58.9891 6.01562 60.3289 6.57812 61.2274 7.70312C62.1336 8.82031 62.5867 10.457 62.5867 12.6133C62.5867 14.7305 62.1102 16.3633 61.157 17.5117C60.2117 18.6602 58.8797 19.2344 57.1609 19.2344C56.2547 19.2344 55.4383 19.0469 54.7117 18.6719C53.9852 18.2969 53.4109 17.7656 52.9891 17.0781H52.8836L52.5555 19H51.8289V0.765625H52.9891V5.34766C52.9891 6.03516 52.9734 6.66797 52.9422 7.24609L52.907 8.24219H52.9891C53.4734 7.47656 54.0555 6.91406 54.7352 6.55469C55.4227 6.19531 56.2469 6.01562 57.2078 6.01562ZM57.1844 7.07031C55.6844 7.07031 54.6102 7.5 53.9617 8.35938C53.3133 9.21875 52.9891 10.6367 52.9891 12.6133V12.8125C52.9891 14.7344 53.325 16.1133 53.9969 16.9492C54.6766 17.7852 55.7313 18.2031 57.1609 18.2031C58.5516 18.2031 59.5984 17.7188 60.3016 16.75C61.0047 15.7734 61.3563 14.3867 61.3563 12.5898C61.3563 8.91016 59.9656 7.07031 57.1844 7.07031Z" fill="white"/>
<path d="M75.3002 19L75.0072 16.9844H74.9135C74.2728 17.8047 73.6127 18.3867 72.933 18.7305C72.2611 19.0664 71.4642 19.2344 70.5424 19.2344C69.2924 19.2344 68.3197 18.9141 67.6244 18.2734C66.9291 17.6328 66.5814 16.7461 66.5814 15.6133C66.5814 14.3711 67.097 13.4062 68.1283 12.7188C69.1674 12.0312 70.6674 11.668 72.6283 11.6289L75.0541 11.5586V10.7148C75.0541 9.50391 74.808 8.58984 74.3158 7.97266C73.8236 7.35547 73.0306 7.04688 71.9369 7.04688C70.7572 7.04688 69.5345 7.375 68.2689 8.03125L67.8353 7.02344C69.2338 6.36719 70.6166 6.03906 71.9838 6.03906C73.3822 6.03906 74.4252 6.40234 75.1127 7.12891C75.808 7.85547 76.1556 8.98828 76.1556 10.5273V19H75.3002ZM70.6127 18.1797C71.972 18.1797 73.0424 17.793 73.8236 17.0195C74.6127 16.2383 75.0072 15.1562 75.0072 13.7734V12.5195L72.7806 12.6133C70.9916 12.6992 69.7142 12.9805 68.9486 13.457C68.1908 13.9258 67.8119 14.6602 67.8119 15.6602C67.8119 16.457 68.0541 17.0781 68.5385 17.5234C69.0306 17.9609 69.722 18.1797 70.6127 18.1797Z" fill="white"/>
<path d="M82.8925 19H81.7323V0.765625H82.8925V19Z" fill="white"/>
<path d="M89.77 19H88.6098V0.765625H89.77V19Z" fill="white"/>
<path d="M102.765 19H98.1358V5.65234H93.9522V1.86719H106.937V5.65234H102.765V19Z" fill="white"/>
<path d="M116.122 19H111.54V5.72266H116.122V19ZM111.423 2.41797C111.423 1.73047 111.614 1.21875 111.997 0.882812C112.38 0.546875 112.997 0.378906 113.848 0.378906C114.7 0.378906 115.321 0.550781 115.712 0.894531C116.102 1.23828 116.298 1.74609 116.298 2.41797C116.298 3.76172 115.481 4.43359 113.848 4.43359C112.231 4.43359 111.423 3.76172 111.423 2.41797Z" fill="white"/>
<path d="M138.022 19V11.7812C138.022 10.8828 137.897 10.2109 137.647 9.76562C137.405 9.3125 137.018 9.08594 136.487 9.08594C135.783 9.08594 135.268 9.38672 134.94 9.98828C134.612 10.5898 134.448 11.5312 134.448 12.8125V19H129.854V11.7812C129.854 10.8828 129.737 10.2109 129.502 9.76562C129.268 9.3125 128.889 9.08594 128.365 9.08594C127.647 9.08594 127.123 9.40625 126.795 10.0469C126.467 10.6875 126.303 11.7344 126.303 13.1875V19H121.721V5.72266H125.178L125.752 7.36328H126.022C126.373 6.75391 126.881 6.28906 127.545 5.96875C128.217 5.64844 128.979 5.48828 129.83 5.48828C131.744 5.48828 133.088 6.07031 133.862 7.23438H134.225C134.6 6.6875 135.119 6.26172 135.783 5.95703C136.455 5.64453 137.194 5.48828 137.998 5.48828C139.569 5.48828 140.729 5.89062 141.479 6.69531C142.229 7.5 142.604 8.72266 142.604 10.3633V19H138.022Z" fill="white"/>
<path d="M154.531 19.2344C152.32 19.2344 150.601 18.6484 149.375 17.4766C148.156 16.2969 147.547 14.6211 147.547 12.4492C147.547 10.207 148.113 8.48828 149.246 7.29297C150.379 6.08984 151.996 5.48828 154.098 5.48828C156.098 5.48828 157.64 6.01172 158.726 7.05859C159.82 8.09766 160.367 9.59766 160.367 11.5586V13.5977H152.176C152.207 14.3398 152.476 14.9219 152.984 15.3438C153.5 15.7656 154.199 15.9766 155.082 15.9766C155.887 15.9766 156.625 15.9023 157.297 15.7539C157.976 15.5977 158.711 15.3359 159.5 14.9688V18.2617C158.781 18.6289 158.039 18.8828 157.273 19.0234C156.508 19.1641 155.594 19.2344 154.531 19.2344ZM154.262 8.60547C153.723 8.60547 153.269 8.77734 152.902 9.12109C152.543 9.45703 152.332 9.98828 152.269 10.7148H156.207C156.191 10.0742 156.008 9.5625 155.656 9.17969C155.312 8.79688 154.848 8.60547 154.262 8.60547Z" fill="white"/>
</svg>
